<?xml version="1.0" encoding="UTF-8"?> <!-- Creator: CorelDRAW 2020 (64-Bit) --> <svg xmlns="http://www.w3.org/2000/svg" xmlns:xlink="http://www.w3.org/1999/xlink" xmlns:xodm="http://www.corel.com/coreldraw/odm/2003" xml:space="preserve" width="23px" height="23px" style="shape-rendering:geometricPrecision; text-rendering:geometricPrecision; image-rendering:optimizeQuality; fill-rule:evenodd; clip-rule:evenodd" viewBox="0 0 2.49 2.49"> <defs> <style type="text/css"> <![CDATA[ .fil0 {fill:white;fill-rule:nonzero} ]]> </style> </defs> <g id="Слой_x0020_1"> <metadata id="CorelCorpID_0Corel-Layer"></metadata> <g id="_437866720"> <g> <g> <path class="fil0" d="M1.72 0l-0.94 0c-0.43,0 -0.78,0.35 -0.78,0.78l0 0.94c0,0.43 0.35,0.77 0.78,0.77l0.94 0c0.43,0 0.77,-0.34 0.77,-0.77l0 -0.94c0,-0.43 -0.34,-0.78 -0.77,-0.78zm0.54 1.72c0,0.3 -0.24,0.54 -0.54,0.54l-0.94 0c-0.3,0 -0.55,-0.24 -0.55,-0.54l0 -0.94c0,-0.3 0.25,-0.55 0.55,-0.55l0.94 0c0.3,0 0.54,0.25 0.54,0.55l0 0.94z"></path> </g> </g> <g> <g> <path class="fil0" d="M1.25 0.62c-0.35,0 -0.63,0.28 -0.63,0.63 0,0.34 0.28,0.62 0.63,0.62 0.34,0 0.62,-0.28 0.62,-0.62 0,-0.35 -0.28,-0.63 -0.62,-0.63zm0 1.02c-0.22,0 -0.39,-0.18 -0.39,-0.39 0,-0.22 0.17,-0.39 0.39,-0.39 0.21,0 0.39,0.17 0.39,0.39 0,0.21 -0.18,0.39 -0.39,0.39z"></path> </g> </g> <g> <g> <circle class="fil0" cx="1.92" cy="0.58" r="0.08"></circle> </g> </g> </g> </g> </svg> 