<?xml version="1.0" encoding="UTF-8"?> <svg xmlns="http://www.w3.org/2000/svg" width="163" height="113" viewBox="0 0 163 113" fill="none"> <path d="M39.6697 64.9112L30.149 66.1628L29.9258 64.5139L39.4462 63.2618L39.6697 64.9112Z" fill="white"></path> <path d="M41.7423 73.3624L32.508 75.9653L32.0473 74.3787L35.5486 71.4932C36.195 71.0148 36.945 70.4518 37.5592 70.0118L37.5084 69.9835C36.5004 70.3947 34.9528 70.9151 33.9898 71.1867L31.3386 71.9346L30.882 70.3609L40.1163 67.7577L40.5767 69.344L36.787 72.466C36.2617 72.8673 35.6153 73.3451 35.1122 73.7262L35.1631 73.7536C36.1672 73.3306 37.6315 72.8189 38.4759 72.5804L41.286 71.7884L41.7423 73.3624Z" fill="white"></path> <path d="M40.3252 87.9304L38.9625 88.7406L36.3975 84.5478L44.6215 79.6594L47.1157 83.7356L45.7529 84.5458L44.1298 81.8939L42.0978 83.1019L43.5858 85.5342L42.2695 86.3158L40.7821 83.8847L38.6319 85.1623L40.3252 87.9304Z" fill="white"></path> <path d="M45.9809 92.2319L47.0883 90.8027C47.4998 90.2779 48.2051 89.4882 48.6336 89.0035L48.6064 88.9724C48.0629 89.3236 47.1614 89.887 46.5714 90.2058L44.9653 91.0596L45.9809 92.2319ZM44.9829 93.5163L43.5221 91.8297L41.947 92.6571L40.8068 91.3407L49.6433 86.9617L50.8195 88.3194L45.0484 96.2366L43.9073 94.9199L44.9829 93.5163Z" fill="white"></path> <path d="M52.1434 96.0189L52.8624 96.6048C53.4857 97.114 54.1655 96.9836 54.804 96.2231C55.4338 95.4726 55.4277 94.8005 54.8043 94.2919L54.0857 93.7057L52.1434 96.0189ZM51.7123 97.7209L51.1203 97.2379L48.9862 99.7801L47.6857 98.7196L53.8087 91.4266L55.838 93.0815C57.2859 94.263 57.3956 95.8087 56.1446 97.2985C55.2522 98.3612 54.2105 98.7758 53.1625 98.5178L52.3263 102.504L50.8994 101.34L51.7123 97.7209Z" fill="white"></path> <path d="M70.9751 101.442L67.2533 110.17L65.7224 109.536L66.8868 106.806C67.3613 105.799 67.8243 104.817 68.2949 103.853L68.242 103.802C67.681 104.42 67.055 105.085 66.4416 105.755L65.1877 107.055L63.6444 106.416L63.7091 104.624C63.7661 103.722 63.8223 102.821 63.8653 101.988L63.791 101.987C63.4218 102.993 63.034 104.006 62.6365 105.045L61.472 107.775L59.9539 107.147L63.6754 98.4176L65.2444 99.0675L65.2301 103.082C65.2225 103.622 65.1862 104.546 65.1458 104.955L65.1964 104.975C65.4647 104.661 66.1208 103.994 66.5077 103.611L69.3939 100.787L70.9751 101.442Z" fill="white"></path> <path d="M76.3107 109.195L76.9773 105.877C77.1797 104.87 76.8747 104.231 76.0402 104.068C75.2056 103.905 74.6631 104.378 74.4604 105.386L73.7937 108.703C73.591 109.711 73.9102 110.353 74.7447 110.515C75.5789 110.678 76.108 110.203 76.3107 109.195ZM72.0844 108.369L72.751 105.053C73.1458 103.089 74.4867 102.123 76.3575 102.489C78.2149 102.852 79.0816 104.248 78.6867 106.211L78.0204 109.528C77.6252 111.492 76.2847 112.457 74.4273 112.095C72.5562 111.729 71.6895 110.332 72.0844 108.369Z" fill="white"></path> <path d="M87.7209 103.533L87.6285 113L85.9542 112.984L84.1421 108.855C83.861 108.108 83.5267 107.239 83.2725 106.533L83.2307 106.574C83.3442 107.644 83.4106 109.254 83.4003 110.241L83.3749 112.96L81.7143 112.944L81.8065 103.476L83.4808 103.492L85.4405 107.961C85.6813 108.572 85.9624 109.318 86.1896 109.902L86.2315 109.862C86.1051 108.792 86.0238 107.263 86.0326 106.398L86.0601 103.516L87.7209 103.533Z" fill="white"></path> <path d="M92.3038 102.964L93.6212 112.343L91.949 112.571L90.6324 103.192L92.3038 102.964Z" fill="white"></path> <path d="M100.403 102.705L98.5369 103.207L100.643 110.815L98.9741 111.264L96.8687 103.656L95.002 104.158L94.5793 102.631L99.9809 101.179L100.403 102.705Z" fill="white"></path> <path d="M108.422 104.6L106.981 101.53C106.544 100.597 105.916 100.258 105.143 100.61C104.371 100.963 104.214 101.66 104.652 102.593L106.093 105.662C106.53 106.595 107.171 106.929 107.943 106.577C108.715 106.225 108.86 105.533 108.422 104.6ZM104.511 106.383L103.07 103.314C102.218 101.497 102.726 99.9385 104.457 99.1494C106.176 98.3655 107.71 98.9926 108.563 100.809L110.004 103.878C110.856 105.696 110.347 107.254 108.629 108.038C106.898 108.827 105.364 108.2 104.511 106.383Z" fill="white"></path> <path d="M113.515 99.5669L114.28 99.0392C114.943 98.582 114.996 97.9015 114.422 97.0925C113.856 96.2941 113.197 96.1214 112.533 96.579L111.769 97.1063L113.515 99.5669ZM115.065 100.43L114.436 100.864L116.355 103.568L114.971 104.522L109.465 96.7627L111.624 95.2738C113.165 94.2122 114.706 94.5192 115.831 96.1044C116.633 97.2346 116.762 98.3354 116.23 99.2624L119.908 101.118L118.391 102.165L115.065 100.43Z" fill="white"></path> <path d="M120.321 97.2592L121.551 96.0615C122.168 96.6586 122.77 96.624 123.288 96.12C123.834 95.5878 123.78 95.0137 123.346 94.5807C122.121 93.3585 119.271 95.9418 117.237 93.9109C116.234 92.9102 116.205 91.4562 117.415 90.2778C118.637 89.0896 120.121 89.1086 121.336 90.3023L120.106 91.4997C119.556 90.9703 119.022 90.9764 118.564 91.4233C118.114 91.8601 118.101 92.367 118.487 92.7522C119.663 93.9259 122.484 91.2561 124.605 93.3738C125.666 94.4325 125.753 96.0021 124.435 97.2846C123.175 98.5102 121.633 98.5488 120.321 97.2592Z" fill="white"></path> <path d="M52.5329 17.8678L50.2929 14.7905C49.1329 13.197 49.3818 11.7058 50.8425 10.6727C52.3366 9.61604 53.8161 9.88505 55.0265 11.4094L53.6555 12.379C53.0345 11.6199 52.4522 11.5152 51.7835 11.9881C51.2146 12.3906 51.133 12.9978 51.7089 13.7892L53.9489 16.8664C54.5088 17.6357 55.1183 17.7539 55.6984 17.3442C56.3781 16.863 56.4647 16.2858 55.9604 15.477L57.332 14.5071C58.4122 16.1073 58.1554 17.5872 56.6502 18.652C55.2008 19.677 53.6848 19.4504 52.5329 17.8678Z" fill="white"></path> <path d="M60.3908 12.5555L57.6111 6.68475L59.1903 5.95847L61.9697 11.8295C62.405 12.7487 63.0233 13.0313 63.7195 12.7107C64.4162 12.3906 64.5934 11.7419 64.1582 10.8227L61.3786 4.95165L62.9704 4.21932L65.7497 10.0904C66.6026 11.8921 66.0764 13.4029 64.41 14.1696C62.7565 14.9301 61.2434 14.3575 60.3908 12.5555Z" fill="white"></path> <path d="M69.2561 9.17903L70.9298 8.75203C71.1597 9.57317 71.6979 9.84073 72.4014 9.66139C73.1452 9.47139 73.3903 8.9478 73.2356 8.35847C72.7986 6.69601 69.0192 7.52148 68.2932 4.75908C67.9355 3.39734 68.6503 2.12584 70.2968 1.70518C71.9568 1.28106 73.2309 2.03156 73.6744 3.6649L72.001 4.0919C71.7953 3.36216 71.3303 3.10383 70.7063 3.26298C70.0953 3.41896 69.8262 3.85115 69.9637 4.37446C70.3834 5.97175 74.1821 5.05778 74.9389 7.93752C75.3173 9.37769 74.594 10.7778 72.801 11.2353C71.0878 11.6727 69.7338 10.943 69.2561 9.17903Z" fill="white"></path> <path d="M83.09 1.57654L81.1624 1.73829L81.8407 9.59416L80.1187 9.73919L79.4396 1.88273L77.5123 2.04506L77.376 0.468521L82.9534 0L83.09 1.57654Z" fill="white"></path> <path d="M91.2552 6.77026L91.5641 3.40297C91.658 2.37914 91.2862 1.77568 90.4385 1.70043C89.5917 1.6246 89.1027 2.15165 89.0085 3.17519L88.7002 6.54278C88.6057 7.56632 88.9912 8.17093 89.8383 8.24675C90.686 8.32201 91.1616 7.79409 91.2552 6.77026ZM86.9645 6.38824L87.273 3.02065C87.4559 1.0272 88.6864 -0.0715881 90.5859 0.0973679C92.4717 0.265747 93.4823 1.56406 93.2995 3.55751L92.9909 6.92538C92.8078 8.91912 91.5778 10.0176 89.6915 9.84982C87.7922 9.68028 86.7814 8.3814 86.9645 6.38824Z" fill="white"></path> <path d="M106.62 3.83918L103.747 12.8737L102.163 12.3841L103.061 9.55774C103.438 8.51142 103.805 7.49105 104.182 6.48741L104.124 6.44128C103.625 7.10932 103.065 7.82925 102.518 8.55351L101.394 9.96369L99.7963 9.47038L99.6899 7.67933C99.6603 6.77717 99.6308 5.87501 99.5939 5.04148L99.5202 5.04696C99.2485 6.08261 98.9592 7.12777 98.662 8.19802L97.7629 11.0244L96.1918 10.5392L99.0651 1.50407L100.689 2.00604L101.056 6.00361C101.101 6.5419 101.153 7.4651 101.152 7.87567L101.204 7.89211C101.441 7.55419 102.031 6.82936 102.379 6.41244L104.984 3.33347L106.62 3.83918Z" fill="white"></path> <path d="M112.65 14.425L114.066 15.403C113.581 16.1088 113.723 16.686 114.319 17.0974C114.948 17.5325 115.511 17.3762 115.865 16.8777C116.866 15.4716 113.777 13.1714 115.438 10.8345C116.257 9.68354 117.703 9.39406 119.096 10.3568C120.5 11.3275 120.748 12.77 119.774 14.162L118.359 13.1835C118.788 12.5555 118.687 12.0394 118.159 11.6741C117.642 11.3172 117.134 11.3959 116.819 11.8384C115.858 13.1895 119.028 15.4468 117.295 17.8828C116.429 19.101 114.879 19.4663 113.362 18.4185C111.913 17.4169 111.598 15.9274 112.65 14.425Z" fill="white"></path> <path d="M129.129 19.2811L122.3 25.9379L121.103 24.7457L123.982 21.94L122.351 20.3147L119.473 23.1204L118.286 21.9377L125.115 15.2804L126.302 16.4631L123.493 19.2021L125.123 20.8271L127.933 18.088L129.129 19.2811Z" fill="white"></path> <path d="M129.535 30.4993L132.387 28.6203C133.254 28.0489 133.496 27.3846 133.024 26.6877C132.551 25.9902 131.828 25.9461 130.961 26.517L128.109 28.3963C127.242 28.9677 127.006 29.6433 127.48 30.3401C127.952 31.0376 128.668 31.0702 129.535 30.4993ZM127.14 26.9682L129.992 25.0892C131.681 23.9766 133.321 24.23 134.381 25.7933C135.434 27.3451 135.043 28.936 133.355 30.0484L130.503 31.9271C128.815 33.0397 127.174 32.7868 126.122 31.2342C125.062 29.6715 125.452 28.0806 127.14 26.9682Z" fill="white"></path> <path d="M137.067 37.901C138.039 37.4936 138.355 36.8766 138 36.0549L137.625 35.1833L134.695 36.4101L135.07 37.2817C135.424 38.1037 136.094 38.3081 137.067 37.901ZM137.743 39.4695C135.886 40.2474 134.367 39.6632 133.611 37.9079L133.23 37.0239L130.261 38.2669L129.601 36.7356L138.443 33.0333L139.484 35.4485C140.241 37.2041 139.599 38.6919 137.743 39.4695Z" fill="white"></path> <path d="M73.0626 50.6912C73.0565 50.6655 73.0515 50.6384 73.046 50.6125C73.0471 50.656 73.0504 50.6998 73.0527 50.7431C73.0556 50.7258 73.0591 50.7088 73.0626 50.6912Z" fill="white"></path> <path d="M89.4508 78.1109C89.4394 78.1282 89.4285 78.1464 89.4174 78.164C89.4198 78.1631 89.4218 78.1617 89.425 78.1611C89.4288 78.153 89.4329 78.1446 89.4376 78.1366L89.4364 78.136C89.4388 78.1325 89.4408 78.1294 89.4429 78.1262C89.4449 78.1207 89.4481 78.1164 89.4508 78.1109Z" fill="white"></path> <path d="M51.7705 37.9161C53.281 36.2294 52.6665 38.1335 52.6665 38.1335C52.3988 39.2931 51.0887 41.8231 51.0887 41.8231C48.3014 47.2179 46.2917 48.9348 45.7271 49.3419C47.6901 42.5099 51.7705 37.9161 51.7705 37.9161ZM60.9896 57.6081C60.9896 57.6081 62.5387 58.2488 64.3736 57.0145C67.7728 54.9677 72.8661 45.0451 74.88 35.1185C74.88 35.1185 75.1131 34.4205 74.7015 33.4116C74.7015 33.4116 73.3873 29.733 71.6428 31.4655C71.3781 32.5225 67.3714 48.8795 61.7969 53.8213C61.7969 53.8213 60.4602 55.0732 60.5939 52.2004C60.5939 52.2004 60.8004 46.745 69.4307 29.878C69.4307 29.878 69.6468 29.5118 69.3675 28.7605C69.3675 28.7605 68.9302 27.3803 67.957 26.5271C67.957 26.5271 66.8903 25.3447 65.6936 27.4881C65.6936 27.4881 63.7064 30.8306 61.6375 35.4238C54.1579 51.9882 46.7453 55.3575 46.7453 55.3575C45.2468 56.0284 44.6852 54.7503 44.8321 53.8608C44.9175 53.0619 45.0418 52.2837 45.1939 51.5254C45.3975 51.7367 45.621 51.9368 45.621 51.9368C46.4499 52.6222 47.4257 51.8841 47.4257 51.8841C54.3773 46.9293 55.9165 38.7937 55.9165 38.7937C56.677 35.096 53.6329 32.6153 53.6329 32.6153C52.474 31.6108 51.3528 32.4412 51.3528 32.4412C46.215 36.3084 41.597 46.1915 41.2554 49.2041C39.9593 56.7267 46.0872 60.004 48.9066 58.796C53.0695 57.3221 55.9829 52.3033 57.1795 49.886C57.116 50.4696 57.0736 51.0442 57.0578 51.6055C57.0578 51.6055 57.2117 55.8897 60.9896 57.6081Z" fill="white"></path> <path d="M108.133 32.9183C109.643 31.2316 109.028 33.1357 109.028 33.1357C108.76 34.2953 107.451 36.8254 107.451 36.8254C105.001 41.5679 102.976 43.4671 102.09 44.134C104.046 37.1786 108.133 32.9183 108.133 32.9183ZM79.5247 56.1293C79.5247 56.1293 82.4287 54.7762 84.9188 49.549C85.1042 50.6524 86.1359 55.5772 89.76 55.3944C89.76 55.3944 93.9369 55.2669 97.6619 48.6557C98.6532 52.9932 102.5 54.7828 105.402 53.9666C111.763 52.316 116.644 43.252 116.644 43.252C116.644 43.252 117.704 41.1404 117.544 40.3605C117.203 38.7 116.642 38.2918 116.642 38.2918C116.2 37.8896 115.65 38.4316 115.474 38.6902C108.921 48.2999 103.493 50.4609 103.493 50.4609C101.033 51.3833 101.194 48.863 101.194 48.863C101.273 48.0517 101.39 47.2669 101.534 46.5054C101.743 46.7246 101.983 46.9394 101.983 46.9394C102.812 47.6244 103.788 46.8863 103.788 46.8863C110.739 41.9318 112.279 33.796 112.279 33.796C113.038 30.0983 109.995 27.6178 109.995 27.6178C108.836 26.613 107.715 27.4437 107.715 27.4437C105.33 29.2388 103.057 32.3301 101.272 35.4293L101.273 35.4282C101.273 35.4282 101.269 35.4342 101.264 35.4437C101.107 35.7153 100.955 35.9869 100.807 36.2579C99.0551 39.343 92.7859 50.0734 89.3897 51.7457C89.3897 51.7457 88.0658 52.576 88.4759 50.0472C88.4759 50.0472 88.733 47.454 92.1146 39.3784C92.9892 38.1283 94.2742 36.1547 95.93 33.2519C98.3765 32.9489 100.108 32.8667 100.108 32.8667C101.305 31.3623 101.638 29.9979 101.638 29.9979C102.053 28.5105 100.972 28.3796 100.972 28.3796C100.22 28.2588 99.4611 28.1789 98.71 28.1302C99.9666 25.7092 101.357 22.894 102.875 19.6213C102.875 19.6213 103.273 18.8416 102.875 17.9055C102.875 17.9055 101.919 15.987 101.288 15.9417C101.288 15.9417 100.449 15.7255 100.157 16.239C96.9424 21.8834 95.1429 24.6352 93.1176 28.2631C90.7162 28.5073 89.0565 28.896 89.0565 28.896C87.7797 29.0877 87.2439 29.9979 87.2439 29.9979C86.1543 31.3568 85.5746 32.8206 85.5746 32.8206C84.9787 34.9049 86.6472 35.2278 86.6472 35.2278C87.7165 34.863 88.843 34.5534 89.97 34.2899C89.363 35.495 82.135 49.7202 77.7188 52.6222C77.7188 52.6222 76.5959 53.5312 76.7296 51.4755C76.7296 51.4755 76.7299 46.7185 83.0397 35.6496C83.0397 35.6496 83.5788 34.6021 83.1099 33.636C83.1099 33.636 81.7176 30.7539 80.3119 31.6073C80.3119 31.6073 74.2161 40.077 72.966 49.5913C73.2002 53.9926 76.8366 57.3134 79.5247 56.1293Z" fill="white"></path> <path d="M82.5064 31.3644C83.7496 32.0739 84.2322 31.2306 84.2322 31.2306C85.2671 29.1506 87.2675 26.5128 87.2675 26.5128C87.8066 25.6781 87.7533 25.3935 87.7533 25.3935C87.7761 23.631 85.5815 22.1811 85.5815 22.1811C84.7011 21.6194 84.0497 22.4749 84.0497 22.4749C84.0497 22.4749 81.6242 25.4673 81.2223 28.4725C80.9681 30.468 82.5064 31.3644 82.5064 31.3644Z" fill="white"></path> <path d="M45.7984 30.1314C45.7984 30.1314 45.3935 21.365 36.3166 17.7604C36.3166 17.7604 27.667 13.6562 15.7791 18.8918C15.7791 18.8918 1.71855 25.437 0.0264207 36.6279C0.0264207 36.6279 -0.527286 42.9104 3.43495 45.994C7.00406 48.7711 12.186 48.1682 12.8143 47.0348C12.8143 47.0348 13.5231 46.1649 11.9991 44.5838C11.9991 44.5838 11.8655 44.3073 11.05 44.452C11.05 44.452 5.75596 44.6495 3.0155 41.1447C3.0155 41.1447 2.19971 39.9585 2.72124 38.1401C4.21856 31.9072 20.7955 15.5672 36.1426 22.0504C36.1426 22.0504 41.4099 24.3696 41.677 30.0887C42.0649 33.5806 37.6065 46.6856 21.3504 57.8339C21.3504 57.8339 20.348 58.5025 20.7789 57.1107C21.2097 55.7187 24.1573 44.3139 30.8085 27.6654C30.8085 27.6654 30.9232 27.3563 30.7605 26.9959C30.7605 26.9959 29.2711 24.5276 28.4866 24.9145C27.7504 25.2778 27.8285 25.2308 27.1864 26.2235C27.1864 26.2235 18.603 45.5796 16.9357 54.7589C16.9357 54.7589 16.6628 56.503 17.1516 57.6986C17.6406 58.8949 20.3878 62.6621 22.3563 62.1094C27.5064 61.1346 46.5167 43.709 45.7984 30.1314Z" fill="white"></path> <path d="M133.659 59.1879C134.876 59.9393 135.388 59.1126 135.388 59.1126C136.494 57.0684 138.586 54.5004 138.586 54.5004C139.153 53.6841 139.11 53.3978 139.11 53.3978C139.194 51.6374 136.905 50.3278 136.905 50.3278C136.046 49.7362 135.51 50.3558 135.51 50.3558C135.51 50.3558 132.982 53.2646 132.476 56.2545C132.152 58.2402 133.659 59.1879 133.659 59.1879Z" fill="white"></path> <path d="M142.121 79.0826C142.121 79.0826 140.57 80.8223 140.677 76.8167C140.677 76.8167 140.861 70.3966 145.489 63.1459C145.026 65.7708 145.036 68.6572 146.374 70.9591C145.576 73.1605 143.941 77.214 142.121 79.0826ZM108.054 81.5509C106.038 83.6502 106.286 80.9538 106.286 80.9538C106.541 74.6811 110.926 66.6297 111.809 65.4436C112.691 64.2577 112.584 65.4698 112.584 65.4698C112.183 68.0791 109.857 72.6914 109.857 72.6914C109.469 74.1805 110.565 75.2214 110.565 75.2214C111.309 75.9064 111.742 75.4016 111.742 75.4016C112.243 75.036 112.814 74.1762 113.379 73.1236C110.899 78.392 108.054 81.5509 108.054 81.5509ZM162.99 64.245C162.99 64.245 162.915 62.0013 161.573 61.8315C161.573 61.8315 161.085 61.5567 160.551 62.2158C158.828 64.8937 153.055 70.1761 151.781 69.8511C152.663 67.1317 153.3 64.0945 153.45 60.8451C153.45 60.8451 152.957 56.2591 149.859 55.2448C149.859 55.2448 148.438 54.7045 147.743 56.2066C147.512 56.7057 146.93 57.9821 146.382 59.6492C146.029 59.2444 145.457 58.7761 144.541 58.2624C144.541 58.2624 143.634 57.7618 143.015 58.2624C143.015 58.2624 141.409 59.9565 139.782 63.4037L139.782 63.4025C139.78 63.408 139.778 63.4123 139.775 63.4178C139.416 64.1822 139.055 65.0318 138.71 65.9689C134.905 74.592 130.578 79.5569 130.578 79.5569C128.118 82.3769 128.452 78.0429 128.452 78.0429C128.907 71.8875 134.309 62.8686 134.428 62.6745C134.548 62.4805 134.435 62.2135 134.435 62.2135C133.81 60.7667 132.678 59.6068 132.678 59.6068C131.739 58.8935 131.013 59.9219 131.013 59.9219C131.013 59.9219 129.152 62.4433 127.37 65.8631L127.369 65.8651C127.01 66.5542 126.655 67.2807 126.319 68.0298C122.923 74.7777 119.19 79.9795 119.19 79.9795C116.595 83.2203 117.258 79.56 117.258 79.56C117.611 75.7089 120.117 69.4146 120.117 69.4146C124.763 61.4512 129.883 48.4052 129.883 48.4052C130.177 47.8782 129.983 47.6896 129.983 47.6896C128.72 45.7351 127.995 45.6748 127.995 45.6748C126.949 45.4479 126.421 46.3365 126.421 46.3365C124.597 48.6371 118.43 61.894 115.797 67.6325C116.116 66.7978 116.31 66.2437 116.31 66.2437C116.989 63.0246 113.79 60.2558 113.79 60.2558C112.456 59.1931 111.309 59.8767 111.309 59.8767C110.808 60.1163 107.354 62.9184 105.025 68.7267V68.7218C101.368 77.9304 98.9145 81.8499 98.9145 81.8499C97.4107 84.6368 97.3259 81.4534 97.3259 81.4534C96.9696 75.8932 100.845 67.2006 101.296 66.056C101.746 64.9116 99.4246 62.4156 99.4246 62.4156C98.1435 61.2459 97.4485 63.0456 97.4485 63.0456C92.0234 75.8012 87.7453 82.3769 87.7453 82.3769C85.6799 85.9824 85.7832 82.0387 85.7832 82.0387C85.7715 76.5906 91.2995 63.8353 91.654 63.0061C92.0088 62.1772 91.654 61.619 91.654 61.619C91.654 61.619 91.1407 60.3296 90.197 59.4958C89.0744 58.5031 88.1683 59.7936 88.1683 59.7936C87.0114 62.0647 86.0769 64.307 85.3175 66.4492L85.3184 66.4437C85.3146 66.4556 85.3102 66.4677 85.3073 66.4795C85.1046 67.0518 84.9139 67.6175 84.7357 68.1742C82.6271 73.9666 78.134 82.5952 76.9169 84.3205C75.6214 86.1559 75.5412 84.3574 75.5412 84.3574C75.0606 80.1136 79.6442 68.3516 80.0753 66.8304C80.5065 65.3092 78.9427 63.3743 78.9427 63.3743C77.3588 61.5564 76.727 63.8293 76.727 63.8293C73.3071 74.0468 65.5689 84.9323 65.5689 84.9323C63.2725 88.1206 63.2725 84.6812 63.2725 84.6812C63.5615 74.5606 69.8178 63.4559 71.0612 61.5348C72.405 59.4595 71.8636 62.1083 71.8636 62.1083C71.5225 64.3018 68.7736 70.973 68.537 71.6557C68.3 72.3382 69.4703 74.0531 69.4703 74.0531C70.0831 75.081 71.0221 73.9288 71.0221 73.9288C73.5279 70.0936 75.5497 64.6887 75.7723 62.5459C76.1549 58.8667 72.9274 56.0587 72.9274 56.0587C71.7056 55.1286 70.4078 56.2012 70.4078 56.2012C61.3157 64.5195 59.1058 79.6702 59.1058 79.6702C58.2274 85.0234 61.8363 88.7459 61.8363 88.7459C64.5908 91.5484 67.5319 88.9919 67.5319 88.9919C70.3394 86.4356 71.6621 82.5612 71.6621 82.5612C71.3821 83.9316 71.9736 85.4928 71.9736 85.4928C74.4303 90.4675 77.6417 88.782 77.6417 88.782C80.1677 87.3519 81.5653 84.2902 82.1316 82.7561C82.9807 85.9112 85.3067 87.3401 85.3067 87.3401C86.5688 88.3861 87.9284 87.9755 87.9284 87.9755C90.7133 87.5952 93.1531 80.944 93.1531 80.944C93.2528 83.5103 95.8257 85.9821 95.8257 85.9821C97.5576 87.753 99.2842 86.7583 99.2842 86.7583C101.019 85.8789 102.353 83.7565 103.294 81.706C104.497 85.1621 107.258 85.8947 107.258 85.8947C108.065 86.2508 109.015 86.0069 109.015 86.0069C111.59 85.4718 113.994 80.9206 113.994 80.9206C114.449 82.3198 116.037 85.4709 118.907 85.2296C121.479 84.7521 123.503 81.6411 124.661 79.372C125.65 81.9816 127.658 83.363 127.658 83.363C130.011 85.1024 132.109 83.6158 132.109 83.6158C134.089 82.4954 135.802 79.934 136.791 78.2101C136.903 78.7196 137.07 79.2181 137.322 79.5805C138.109 80.7101 140.625 84.5575 144.034 82.6601C145.151 82.1094 148.061 78.7031 150.359 73.5549C151.633 73.998 153.091 74.1852 154.499 73.6515C156.273 73.4693 163.304 67.2231 162.99 64.245Z" fill="white"></path> </svg> 